<svg id="Ebene_1" data-name="Ebene 1" xmlns="http://www.w3.org/2000/svg" viewBox="0 0 791.83 94.77"><defs><style>.cls-1{fill:#f6f6f6;}</style></defs><polygon class="cls-1" points="48.78 66.95 55.15 43.87 61.52 66.95 71.7 66.95 82.48 27.83 73.09 27.83 66.33 55.21 58.79 27.83 51.52 27.83 43.98 55.21 37.21 27.83 27.83 27.83 38.61 66.95 48.78 66.95"/><polygon class="cls-1" points="112.09 51.41 124.39 51.41 124.39 66.95 133.33 66.95 133.33 27.83 124.39 27.83 124.39 42.8 112.09 42.8 112.09 27.83 103.15 27.83 103.15 66.95 112.09 66.95 112.09 51.41"/><rect class="cls-1" x="156.8" y="27.83" width="8.94" height="39.12"/><polygon class="cls-1" points="196.48 66.95 205.42 66.95 205.42 36.43 215.48 36.43 215.48 27.83 186.42 27.83 186.42 36.43 196.48 36.43 196.48 66.95"/><polygon class="cls-1" points="260.74 58.34 245.09 58.34 245.09 51.41 259.07 51.41 259.07 42.91 245.09 42.91 245.09 36.43 260.46 36.43 260.46 27.83 236.15 27.83 236.15 66.95 260.74 66.95 260.74 58.34"/><polygon class="cls-1" points="618.71 58.34 604.74 58.34 604.74 27.83 595.8 27.83 595.8 66.95 618.71 66.95 618.71 58.34"/><path class="cls-1" d="M685.13,360.5h14.53l2,6.15h9.78l-13.3-39.12H686.7l-13.31,39.12h9.78Zm7.27-22.74L697,352.12h-9.17Z" transform="translate(-36.25 -299.7)"/><polygon class="cls-1" points="699.74 66.95 708.68 66.95 708.68 36.43 718.74 36.43 718.74 27.83 689.68 27.83 689.68 36.43 699.74 36.43 699.74 66.95"/><polygon class="cls-1" points="764 58.34 748.36 58.34 748.36 51.41 762.33 51.41 762.33 42.91 748.36 42.91 748.36 36.43 763.72 36.43 763.72 27.83 739.41 27.83 739.41 66.95 764 66.95 764 58.34"/><path class="cls-1" d="M363.62,367.43a19.37,19.37,0,0,0,16.77-9.05l-7.72-4.47c-1.67,3-5.08,4.81-9.05,4.81-6.93,0-11.4-4.64-11.4-11.63s4.47-11.62,11.4-11.62a10.11,10.11,0,0,1,9.05,4.8l7.72-4.47a19.52,19.52,0,0,0-16.77-9.05c-11.79,0-20.34,8.83-20.34,20.34S351.83,367.43,363.62,367.43Z" transform="translate(-36.25 -299.7)"/><polygon class="cls-1" points="374.04 51.41 386.33 51.41 386.33 66.95 395.27 66.95 395.27 27.83 386.33 27.83 386.33 42.8 374.04 42.8 374.04 27.83 365.1 27.83 365.1 66.95 374.04 66.95 374.04 51.41"/><path class="cls-1" d="M473.65,367.43a20.34,20.34,0,1,0-20.34-20.34A20.17,20.17,0,0,0,473.65,367.43Zm0-32c6.38,0,11.41,4.63,11.41,11.62s-5,11.63-11.41,11.63-11.4-4.64-11.4-11.63S467.28,335.47,473.65,335.47Z" transform="translate(-36.25 -299.7)"/><path class="cls-1" d="M534.45,367.43a19.37,19.37,0,0,0,16.77-9.05l-7.72-4.47c-1.67,3-5.08,4.81-9,4.81-6.93,0-11.4-4.64-11.4-11.63s4.47-11.62,11.4-11.62a10.11,10.11,0,0,1,9,4.8l7.72-4.47a19.52,19.52,0,0,0-16.77-9.05c-11.79,0-20.34,8.83-20.34,20.34S522.66,367.43,534.45,367.43Z" transform="translate(-36.25 -299.7)"/><path class="cls-1" d="M590.28,367.43a20.34,20.34,0,1,0-20.34-20.34A20.17,20.17,0,0,0,590.28,367.43Zm0-32c6.37,0,11.4,4.63,11.4,11.62s-5,11.63-11.4,11.63-11.4-4.64-11.4-11.63S583.91,335.47,590.28,335.47Z" transform="translate(-36.25 -299.7)"/><path class="cls-1" d="M324.53,299.7H36.25v94.78H828.08V299.7Zm-9.08,85.7H45.33V308.79H315.45Zm503.54,0H324.53V308.79H819Z" transform="translate(-36.25 -299.7)"/></svg>