<svg id="Ebene_1" data-name="Ebene 1" xmlns="http://www.w3.org/2000/svg" viewBox="0 0 340.16 75.55"><defs><style>.cls-1{fill:#f6f6f6;}</style></defs><path class="cls-1" d="M569.38,260.18l-4.14,23.32c-2.34-4.26-10.41-7.61-19-7.61-11.72,0-22.52,6-27.55,15.64-2.45-9.85-12.57-15.64-27.35-15.64-17.76,0-30.25,6.87-35.26,16.87-1.14-9.88-9.56-16.87-21.58-16.87-10.07,0-17.34,3-22.61,8.61l1.51-8.61H371l-17.07,25-8.46-25H261.68l-10.57,59.84h23L277,319.1h34.55l3-16.38H279.9l1.76-10.15h40L323.86,280,341,318c-2.17,2.84-4.59,3.18-8.44,3.18h-11.7l-2.65,14.58h17.74c9.48,0,16.54-3.84,25.32-15.5l29.6-39.38-9.6,54.88h21.9l3.77-21.19c2.21,4.23,10.36,7.61,19,7.61,12.13,0,23.24-6.43,28-16.82,1.58,10.21,12.34,16.78,31.13,16.78,13.54,0,23.9-3.68,29.71-10.16l-13.33-7.1c-3.6,2.3-8,4-14.84,4-5.93,0-11.95-2.05-12.91-5.77h42.2c0,11.08,8.86,19.06,21.73,19.06,9.94,0,17.63-2.84,22.56-8.07l-.45,8h20.64l10.94-61.9ZM433.44,299c-.92,5.1-6.18,8.82-13.49,8.82s-11.16-3.93-10.37-8.9,6-8.69,13.58-8.69C430.31,290.23,434.36,293.69,433.44,299Zm42.18-5.18c1.33-2.51,4.47-6.27,13.16-6.27s10.32,3.68,10.61,6.27Zm86.9,5.31c-.92,5.05-5.93,8.65-13.58,8.65-7.14,0-11.19-3.43-10.28-8.78.88-5,6.19-8.77,13.46-8.77S563.32,294.15,562.52,299.13Z" transform="translate(-251.11 -260.18)"/></svg>