<svg id="Ebene_1" data-name="Ebene 1" xmlns="http://www.w3.org/2000/svg" viewBox="0 0 167.72 114.31"><defs><style>.cls-1{fill:#fff;}</style></defs><polygon class="cls-1" points="27.83 85.55 27.83 102.36 37.67 102.36 37.67 98.66 31.67 98.66 31.67 85.55 27.83 85.55"/><path class="cls-1" d="M388.24,341.26h6.24l.84,2.64h4.2l-5.71-16.8h-4.89l-5.72,16.8h4.2Zm3.12-9.76,2,6.16H389.4Z" transform="translate(-337.62 -241.55)"/><polygon class="cls-1" points="72.47 102.36 76.31 102.36 76.31 89.25 80.63 89.25 80.63 85.55 68.14 85.55 68.14 89.25 72.47 89.25 72.47 102.36"/><polygon class="cls-1" points="100.07 98.66 93.35 98.66 93.35 95.68 99.35 95.68 99.35 92.03 93.35 92.03 93.35 89.25 99.95 89.25 99.95 85.55 89.51 85.55 89.51 102.36 100.07 102.36 100.07 98.66"/><polygon class="cls-1" points="28.49 23.71 25.25 11.95 22.13 11.95 18.89 23.71 15.98 11.95 11.95 11.95 16.58 28.75 20.95 28.75 23.69 18.84 26.42 28.75 30.79 28.75 35.42 11.95 31.39 11.95 28.49 23.71"/><polygon class="cls-1" points="53.42 18.38 48.14 18.38 48.14 11.95 44.3 11.95 44.3 28.75 48.14 28.75 48.14 22.08 53.42 22.08 53.42 28.75 57.26 28.75 57.26 11.95 53.42 11.95 53.42 18.38"/><rect class="cls-1" x="67.34" y="11.95" width="3.84" height="16.8"/><polygon class="cls-1" points="80.06 15.65 84.38 15.65 84.38 28.75 88.22 28.75 88.22 15.65 92.54 15.65 92.54 11.95 80.06 11.95 80.06 15.65"/><polygon class="cls-1" points="105.26 22.08 111.26 22.08 111.26 18.43 105.26 18.43 105.26 15.65 111.86 15.65 111.86 11.95 101.42 11.95 101.42 28.75 111.98 28.75 111.98 25.06 105.26 25.06 105.26 22.08"/><path class="cls-1" d="M387.31,293.71a4.37,4.37,0,0,1,3.89,2.06l3.31-1.92a8.39,8.39,0,0,0-7.2-3.88,8.74,8.74,0,1,0,0,17.47,8.31,8.31,0,0,0,7.2-3.89l-3.31-1.92a4.32,4.32,0,0,1-3.89,2.07,5,5,0,0,1,0-10Z" transform="translate(-337.62 -241.55)"/><polygon class="cls-1" points="75.01 55.19 69.73 55.19 69.73 48.75 65.89 48.75 65.89 65.55 69.73 65.55 69.73 58.88 75.01 58.88 75.01 65.55 78.85 65.55 78.85 48.75 75.01 48.75 75.01 55.19"/><path class="cls-1" d="M434.56,290a8.74,8.74,0,1,0,8.74,8.73A8.66,8.66,0,0,0,434.56,290Zm0,13.73a5,5,0,1,1,4.9-5A4.78,4.78,0,0,1,434.56,303.7Z" transform="translate(-337.62 -241.55)"/><path class="cls-1" d="M451.94,298.7a8.51,8.51,0,0,0,8.73,8.74,8.32,8.32,0,0,0,7.21-3.89l-3.32-1.92a4.31,4.31,0,0,1-3.89,2.07,5,5,0,0,1,0-10,4.34,4.34,0,0,1,3.89,2.06l3.32-1.92a8.41,8.41,0,0,0-7.21-3.88A8.51,8.51,0,0,0,451.94,298.7Z" transform="translate(-337.62 -241.55)"/><path class="cls-1" d="M484.65,307.44a8.74,8.74,0,1,0-8.74-8.74A8.66,8.66,0,0,0,484.65,307.44Zm0-13.73a5,5,0,1,1-4.9,5A4.78,4.78,0,0,1,484.65,293.71Z" transform="translate(-337.62 -241.55)"/><path class="cls-1" d="M505.34,278.35H461.43v-36.8H337.62v40.7h29v32.9H351.29v40.71h98.33V319.05h55.72Zm-163.82,0v-32.9h116v32.9h-116ZM445.72,352H355.19V319.05h90.53Zm55.72-36.81H370.52v-32.9H501.44Z" transform="translate(-337.62 -241.55)"/></svg>