<svg width="150" height="150" viewBox="0 0 150 150" fill="none" xmlns="http://www.w3.org/2000/svg">
<path d="M0 25V50H50V0H0V25ZM42.8571 25V42.8571H7.14286V7.14286H42.8571V25Z" fill="white"/>
<path d="M57.1429 7.14286V14.2857H64.2857V21.4286H78.5714V35.7143H71.4286V50H64.2857V28.5714H57.1429V64.2857H50V57.1429H35.7143V64.2857H28.5714V71.4286H14.2857V78.5714H7.14286V64.2857H21.4286V57.1429H0V92.8571H7.14286V85.7143H14.2857V92.8571H28.5714V85.7143H35.7143V92.8571H57.1429V100H64.2857V92.8571H71.4286V78.5714H92.8571V92.8571H85.7143V85.7143H78.5714V100H85.7143V107.143H78.5714V121.429H85.7143V135.714H78.5714V142.857H71.4286V135.714H64.2857V128.571H71.4286V107.143H57.1429V114.286H64.2857V128.571H57.1429V150H64.2857V142.857H71.4286V150H92.8571V142.857H100V135.714H114.286V142.857H107.143V150H114.286V142.857H121.429V135.714H150V128.571H142.857V121.429H150V114.286H135.714V128.571H121.429V121.429H114.286V128.571H107.143V121.429H100V107.143H92.8571V100H107.143V114.286H128.571V107.143H135.714V100H128.571V92.8571H114.286V100H107.143V92.8571H100V71.4286H92.8571V64.2857H114.286V78.5714H107.143V85.7143H128.571V78.5714H135.714V71.4286H142.857V78.5714H150V57.1429H135.714V71.4286H128.571V64.2857H121.429V57.1429H92.8571V42.8571H85.7143V21.4286H92.8571V14.2857H85.7143V0H71.4286V7.14286H64.2857V0H57.1429V7.14286ZM78.5714 10.7143V14.2857H71.4286V7.14286H78.5714V10.7143ZM85.7143 50V57.1429H92.8571V64.2857H85.7143V71.4286H78.5714V42.8571H85.7143V50ZM50 67.8571V71.4286H35.7143V64.2857H50V67.8571ZM71.4286 75V78.5714H64.2857V92.8571H57.1429V85.7143H35.7143V78.5714H64.2857V71.4286H71.4286V75ZM21.4286 82.1429V85.7143H14.2857V78.5714H21.4286V82.1429ZM92.8571 114.286V121.429H100V135.714H92.8571V121.429H85.7143V107.143H92.8571V114.286Z" fill="white"/>
<path d="M100 25V50H150V0H100V25ZM142.857 25V42.8571H107.143V7.14286H142.857V25Z" fill="white"/>
<path d="M135.714 89.2857V92.8571H139.286H142.857V100V107.143H146.429H150V100V92.8571H146.429H142.857V89.2857V85.7143H139.286H135.714V89.2857Z" fill="white"/>
<path d="M0 125V150H50V100H0V125ZM42.8571 125V142.857H7.14286V107.143H42.8571V125Z" fill="white"/>
<path d="M142.857 146.429V150H146.429H150V146.429V142.857H146.429H142.857V146.429Z" fill="white"/>
<path d="M14.2856 25V35.7143H24.9999H35.7142V25V14.2857H24.9999H14.2856V25Z" fill="white"/>
<path d="M114.286 25V35.7143H125H135.714V25V14.2857H125H114.286V25Z" fill="white"/>
<path d="M14.2856 125V135.714H24.9999H35.7142V125V114.286H24.9999H14.2856V125Z" fill="white"/>
</svg>
