<svg id="Ebene_1" data-name="Ebene 1" xmlns="http://www.w3.org/2000/svg" viewBox="0 0 340.07 40.7"><defs><style>.cls-1{fill:#f6f6f6;}</style></defs><polygon class="cls-1" points="20.95 28.75 23.69 18.84 26.42 28.75 30.79 28.75 35.42 11.95 31.39 11.95 28.49 23.71 25.25 11.95 22.13 11.95 18.89 23.71 15.98 11.95 11.95 11.95 16.58 28.75 20.95 28.75"/><polygon class="cls-1" points="48.14 22.08 53.42 22.08 53.42 28.75 57.26 28.75 57.26 11.95 53.42 11.95 53.42 18.38 48.14 18.38 48.14 11.95 44.3 11.95 44.3 28.75 48.14 28.75 48.14 22.08"/><rect class="cls-1" x="67.34" y="11.95" width="3.84" height="16.8"/><polygon class="cls-1" points="84.38 28.75 88.22 28.75 88.22 15.65 92.54 15.65 92.54 11.95 80.06 11.95 80.06 15.65 84.38 15.65 84.38 28.75"/><polygon class="cls-1" points="111.98 25.06 105.26 25.06 105.26 22.08 111.26 22.08 111.26 18.43 105.26 18.43 105.26 15.65 111.86 15.65 111.86 11.95 101.42 11.95 101.42 28.75 111.98 28.75 111.98 25.06"/><polygon class="cls-1" points="265.72 25.06 259.72 25.06 259.72 11.95 255.88 11.95 255.88 28.75 265.72 28.75 265.72 25.06"/><path class="cls-1" d="M540.82,296.66h6.24l.84,2.64h4.2l-5.71-16.8h-4.9l-5.71,16.8H540Zm3.12-9.77,2,6.17H542Z" transform="translate(-262.14 -270.55)"/><polygon class="cls-1" points="300.52 28.75 304.36 28.75 304.36 15.65 308.68 15.65 308.68 11.95 296.2 11.95 296.2 15.65 300.52 15.65 300.52 28.75"/><polygon class="cls-1" points="328.12 25.06 321.4 25.06 321.4 22.08 327.4 22.08 327.4 18.43 321.4 18.43 321.4 15.65 328 15.65 328 11.95 317.56 11.95 317.56 28.75 328.12 28.75 328.12 25.06"/><path class="cls-1" d="M402.74,299.64a8.3,8.3,0,0,0,7.2-3.89l-3.31-1.92a4.32,4.32,0,0,1-3.89,2.06,5,5,0,0,1,0-10,4.34,4.34,0,0,1,3.89,2.06l3.31-1.92a8.39,8.39,0,0,0-7.2-3.89,8.74,8.74,0,0,0,0,17.48Z" transform="translate(-262.14 -270.55)"/><polygon class="cls-1" points="160.64 22.08 165.92 22.08 165.92 28.75 169.76 28.75 169.76 11.95 165.92 11.95 165.92 18.38 160.64 18.38 160.64 11.95 156.8 11.95 156.8 28.75 160.64 28.75 160.64 22.08"/><path class="cls-1" d="M450,299.64a8.74,8.74,0,1,0-8.74-8.74A8.67,8.67,0,0,0,450,299.64Zm0-13.73a5,5,0,1,1-4.9,5A4.78,4.78,0,0,1,450,285.91Z" transform="translate(-262.14 -270.55)"/><path class="cls-1" d="M476.11,299.64a8.31,8.31,0,0,0,7.2-3.89L480,293.83a4.33,4.33,0,0,1-3.89,2.06,5,5,0,0,1,0-10A4.37,4.37,0,0,1,480,288l3.31-1.92a8.39,8.39,0,0,0-7.2-3.89,8.74,8.74,0,0,0,0,17.48Z" transform="translate(-262.14 -270.55)"/><path class="cls-1" d="M500.09,299.64a8.74,8.74,0,1,0-8.74-8.74A8.66,8.66,0,0,0,500.09,299.64Zm0-13.73a5,5,0,1,1-4.9,5A4.78,4.78,0,0,1,500.09,285.91Z" transform="translate(-262.14 -270.55)"/><path class="cls-1" d="M386,270.55H262.14v40.7H602.21v-40.7Zm-3.9,36.8H266v-32.9h116Zm216.25,0H386v-32.9H598.31Z" transform="translate(-262.14 -270.55)"/></svg>