<svg width="153" height="66" viewBox="0 0 153 66" fill="none" xmlns="http://www.w3.org/2000/svg">
<path d="M32.1675 20V12.33L25.7975 1.28H29.4505L33.7535 8.742L38.0435 1.28H41.6965L35.3395 12.33V20H32.1675ZM60.788 20.39C58.916 20.39 57.3126 19.9827 55.978 19.168C54.6433 18.3447 53.6163 17.2007 52.897 15.736C52.1863 14.2713 51.831 12.5727 51.831 10.64C51.831 8.70733 52.1863 7.00867 52.897 5.544C53.6163 4.07933 54.6433 2.93967 55.978 2.125C57.3126 1.30167 58.916 0.89 60.788 0.89C62.66 0.89 64.2633 1.30167 65.598 2.125C66.9413 2.93967 67.9683 4.07933 68.679 5.544C69.3983 7.00867 69.758 8.70733 69.758 10.64C69.758 12.5727 69.3983 14.2713 68.679 15.736C67.9683 17.2007 66.9413 18.3447 65.598 19.168C64.2633 19.9827 62.66 20.39 60.788 20.39ZM60.788 17.439C62.0446 17.4477 63.089 17.1703 63.921 16.607C64.7616 16.0437 65.39 15.2507 65.806 14.228C66.2306 13.2053 66.443 12.0093 66.443 10.64C66.443 9.27067 66.2306 8.08333 65.806 7.078C65.39 6.064 64.7616 5.27533 63.921 4.712C63.089 4.14867 62.0446 3.85833 60.788 3.841C59.5313 3.83233 58.487 4.10967 57.655 4.673C56.823 5.23633 56.1946 6.02933 55.77 7.052C55.354 8.07467 55.146 9.27067 55.146 10.64C55.146 12.0093 55.354 13.201 55.77 14.215C56.186 15.2203 56.81 16.0047 57.642 16.568C58.4826 17.1313 59.5313 17.4217 60.788 17.439ZM90.2856 20.39C88.7949 20.39 87.4819 20.0867 86.3466 19.48C85.2199 18.8733 84.3359 18.0197 83.6946 16.919C83.0619 15.8183 82.7456 14.527 82.7456 13.045V1.306L85.9176 1.28V12.967C85.9176 13.669 86.0346 14.2973 86.2686 14.852C86.5112 15.4067 86.8362 15.879 87.2436 16.269C87.6509 16.6503 88.1189 16.9407 88.6476 17.14C89.1763 17.3393 89.7222 17.439 90.2856 17.439C90.8663 17.439 91.4166 17.3393 91.9366 17.14C92.4653 16.932 92.9333 16.6373 93.3406 16.256C93.7479 15.866 94.0686 15.3937 94.3026 14.839C94.5366 14.2843 94.6536 13.6603 94.6536 12.967V1.28H97.8256V13.045C97.8256 14.527 97.5049 15.8183 96.8636 16.919C96.2309 18.0197 95.3469 18.8733 94.2116 19.48C93.0849 20.0867 91.7762 20.39 90.2856 20.39ZM111.858 20V1.28H119.593C119.775 1.28 120.009 1.28867 120.295 1.306C120.581 1.31467 120.846 1.34067 121.088 1.384C122.172 1.54867 123.064 1.90833 123.766 2.463C124.477 3.01767 125.001 3.71967 125.339 4.569C125.686 5.40967 125.859 6.34567 125.859 7.377C125.859 8.90233 125.474 10.2153 124.702 11.316C123.931 12.408 122.748 13.084 121.153 13.344L119.814 13.461H114.991V20H111.858ZM122.609 20L118.917 12.382L122.102 11.68L126.158 20H122.609ZM114.991 10.536H119.463C119.637 10.536 119.832 10.5273 120.048 10.51C120.265 10.4927 120.464 10.458 120.646 10.406C121.166 10.276 121.574 10.0463 121.868 9.717C122.172 9.38767 122.384 9.015 122.505 8.599C122.635 8.183 122.7 7.77567 122.7 7.377C122.7 6.97833 122.635 6.571 122.505 6.155C122.384 5.73033 122.172 5.35333 121.868 5.024C121.574 4.69467 121.166 4.465 120.646 4.335C120.464 4.283 120.265 4.25267 120.048 4.244C119.832 4.22667 119.637 4.218 119.463 4.218H114.991V10.536ZM10.9869 65V38.292H0.734922V33.32H26.5409V38.292H16.2889V65H10.9869ZM30.4985 65V33.32H35.8005V65H30.4985ZM55.7885 65.66C52.6205 65.66 49.9072 64.9707 47.6485 63.592C45.3899 62.1987 43.6519 60.2627 42.4345 57.784C41.2319 55.3053 40.6305 52.4307 40.6305 49.16C40.6305 45.8893 41.2319 43.0147 42.4345 40.536C43.6519 38.0573 45.3899 36.1287 47.6485 34.75C49.9072 33.3567 52.6205 32.66 55.7885 32.66C59.4405 32.66 62.4839 33.5767 64.9185 35.41C67.3532 37.2287 69.0619 39.6853 70.0445 42.78L64.6985 44.254C64.0825 42.186 63.0339 40.5727 61.5525 39.414C60.0712 38.2407 58.1499 37.654 55.7885 37.654C53.6619 37.654 51.8872 38.1307 50.4645 39.084C49.0565 40.0373 47.9932 41.3793 47.2745 43.11C46.5705 44.826 46.2112 46.8427 46.1965 49.16C46.1965 51.4773 46.5485 53.5013 47.2525 55.232C47.9712 56.948 49.0419 58.2827 50.4645 59.236C51.8872 60.1893 53.6619 60.666 55.7885 60.666C58.1499 60.666 60.0712 60.0793 61.5525 58.906C63.0339 57.7327 64.0825 56.1193 64.6985 54.066L70.0445 55.54C69.0619 58.6347 67.3532 61.0987 64.9185 62.932C62.4839 64.7507 59.4405 65.66 55.7885 65.66ZM74.8749 65V33.32H80.1769V48.016L92.8269 33.32H99.3389L85.7209 48.852L100.263 65H93.5309L80.1769 50.216V65H74.8749ZM103.363 65V33.32H123.823V38.292H108.665V46.102H121.183V51.074H108.665V60.028H123.823V65H103.363ZM136.713 65V38.292H126.461V33.32H152.267V38.292H142.015V65H136.713Z" fill="white"/>
</svg>
